<?xml version="1.0" encoding="utf-8"?>
<!-- Generator: Adobe Illustrator 24.3.0, SVG Export Plug-In . SVG Version: 6.00 Build 0)  -->
<svg version="1.1" id="Layer_1" xmlns="http://www.w3.org/2000/svg" xmlns:xlink="http://www.w3.org/1999/xlink" x="0px" y="0px"
	 viewBox="0 0 216 216" style="enable-background:new 0 0 216 216;" xml:space="preserve">
<style type="text/css">
	.st0{clip-path:url(#SVGID_2_);fill:#D7B9B8;}
</style>
<g>
	<defs>
		<rect id="SVGID_1_" x="20" y="31.54" width="179.29" height="149.35"/>
	</defs>
	<clipPath id="SVGID_2_">
		<use xlink:href="#SVGID_1_"  style="overflow:visible;"/>
	</clipPath>
	<path class="st0" d="M85.91,81.88c5.74,2.04,11.86,3.31,18.48,3.31c16.83,0,29.95-6.5,29.95-14.28c0-4.97-6.25-8.41-16.06-8.41
		c-10.45,0-21.67,6.5-31.87,18.87C86.29,81.5,86.16,81.75,85.91,81.88 M83.74,84.68c-6.25,7.65-13.38,17.72-22.05,30.34
		c4.33-0.89,12.36-3.7,24.6-11.86l1.91,2.8c-11.47,7.52-19.63,10.71-24.6,11.85c0.64,0.77,1.02,1.53,1.15,2.42
		c3.06,14.91,5.99,18.74,13.51,18.74c12.36,0,41.17-15.8,41.17-15.8l1.66,2.8c0,0-29.57,16.32-42.83,16.32
		c-9.56,0-13.39-5.1-16.7-21.29c-0.25-1.02-1.15-1.78-2.55-2.17c-4.21,6.37-10.08,15.29-15.05,22.94l-1.7-3.55
		c16.06-24.73,28.35-42.59,38.16-54.82c-5.1-2.04-9.94-4.46-14.66-6.88c-9.94-5.1-18.99-9.69-28.55-9.69
		c-8.41,0-13.9,2.93-13.9,7.27c0,5.23,3.49,9.43,13.05,9.43l-0.9,3.28C24.13,86.82,20,81.5,20,74.1c0-6.37,6.88-10.58,17.21-10.58
		c10.45,0,20.14,4.97,30.08,10.07c4.97,2.42,10.07,4.97,15.3,7.14c0.51-0.51,0.89-1.02,1.28-1.53c10.84-13,22.82-20.01,34.42-20.01
		c11.73,0,19.38,4.59,19.38,11.73c0,9.94-14.4,17.59-33.27,17.59C96.87,88.51,90.11,86.98,83.74,84.68"/>
	<path class="st0" d="M185.97,57.4c5.1-14.15,0.26-23.45-24.98-19.88c-3.44,0.51-2.17,1.02,9.69,8.92
		C175.39,49.63,181,53.33,185.97,57.4 M120.7,133.63c1.4,0,8.03-5.23,16.57-13.38c-1.28-1.78-2.68-2.55-4.46-2.55
		c-5.74,0-12.87,7.52-12.87,13.26C119.94,132.36,120.45,133.63,120.7,133.63 M187.11,63.01c-8.67,17.85-28.04,39.9-43.72,55.19
		c-1.53,2.42-6.24,9.94-6.24,14.66c0,2.55,1.66,3.7,5.61,3.7c6.37,0,20.08-4.3,40.35-12.84l-1.01,4.06
		c-14.53,6.12-30.67,12.09-39.34,12.09c-5.61,0-8.92-2.55-8.92-7.01c0-2.17,0.76-4.71,1.78-7.26c-7.65,7.01-13.38,11.34-14.91,11.34
		c-2.55,0-4.08-2.8-4.08-5.99c0-7.65,8.54-16.57,16.19-16.57c2.68,0,4.97,1.28,6.88,3.57v-0.13c0.51-0.64,0.77-1.15,1.02-1.53
		l0.38,0.26c15.68-15.55,35.82-38.5,43.6-55.71c-4.08-3.57-9.43-7.39-15.81-11.73c-13-8.54-17.46-13.51-8.29-14.79
		c31.23-4.33,35.56,7.9,28.17,25.37c11.73,10.58,18.18,23.21-5.53,34.05l-0.8-3.47C199.01,82.63,200.12,75.12,187.11,63.01"/>
	<path class="st0" d="M143.04,41.19c-4.35-2.23-8.9-4.09-13.59-5.48c-4.69-1.36-9.51-2.32-14.37-2.73c-9.71-0.86-19.56,0.15-28.81,3
		c-9.25,2.84-17.91,7.47-25.35,13.54c-7.43,6.09-13.63,13.66-18.02,22.19c-2.2,4.26-4,8.73-5.3,13.34
		c-1.31,4.61-2.13,9.36-2.5,14.14c-0.71,9.57,0.57,19.28,3.66,28.4c3.09,9.11,7.92,17.64,14.19,24.99
		c6.27,7.34,13.9,13.55,22.44,18.16c8.56,4.56,17.97,7.66,27.66,8.7c4.84,0.54,9.73,0.62,14.59,0.23c4.86-0.38,9.67-1.3,14.35-2.64
		c4.68-1.36,9.21-3.19,13.51-5.46c4.29-2.28,8.35-4.99,12.08-8.09c7.47-6.18,13.59-13.91,17.95-22.51
		c4.39-8.59,7.01-18.02,7.73-27.62l0.17-3.61l-0.01-3.61c-0.06-1.2-0.1-2.41-0.17-3.61c-0.12-1.2-0.21-2.4-0.35-3.6
		c-0.6-4.78-1.61-9.53-3.1-14.14c-2.96-9.22-7.76-17.88-14.03-25.36c-3.12-3.76-6.66-7.15-10.46-10.22
		C151.49,46.14,147.36,43.48,143.04,41.19 M143.18,40.92c8.71,4.54,16.6,10.66,23.19,17.98c6.6,7.32,11.81,15.94,15.22,25.26
		c3.42,9.32,4.98,19.39,4.31,29.36c-0.62,9.97-3.45,19.8-8.15,28.6c-4.72,8.79-11.29,16.55-19.11,22.65
		c-3.91,3.05-8.13,5.69-12.56,7.88c-4.42,2.21-9.06,3.98-13.81,5.3c-9.5,2.65-19.5,3.53-29.32,2.52c-2.46-0.25-4.9-0.62-7.32-1.1
		c-2.42-0.47-4.83-1.05-7.2-1.74c-4.75-1.38-9.37-3.21-13.79-5.45c-8.83-4.48-16.91-10.57-23.48-18.06
		c-6.6-7.45-11.78-16.19-15.06-25.63c-3.3-9.43-4.75-19.52-4.11-29.53c0.63-10,3.44-19.86,8.08-28.74
		c4.68-8.86,11.17-16.78,19.04-22.97c7.84-6.22,17.01-10.68,26.62-13.19c9.61-2.52,19.66-3.17,29.44-1.93
		C124.95,33.37,134.48,36.35,143.18,40.92"/>
</g>
</svg>
